<?xml version="1.0" standalone="no"?><!DOCTYPE svg PUBLIC "-//W3C//DTD SVG 1.1//EN" "http://www.w3.org/Graphics/SVG/1.1/DTD/svg11.dtd"><svg t="1732087518850" class="icon" viewBox="0 0 1025 1024" version="1.1" xmlns="http://www.w3.org/2000/svg" p-id="4263" width="64.0625" height="64" xmlns:xlink="http://www.w3.org/1999/xlink"><path d="M701.388636 828.178879l-201.917898 179.438757a39.437089 39.437089 0 0 1-26.225664 9.859272 39.437089 39.437089 0 0 1-39.43709-39.437089V828.178879H236.622537a118.311268 118.311268 0 0 1-118.311269-118.311269V236.622537a118.311268 118.311268 0 0 1 118.311269-118.311269h670.430521a118.311268 118.311268 0 0 1 118.311268 118.311269v473.245073a118.311268 118.311268 0 0 1-118.311268 118.311269z" fill="#FFEE03" p-id="4264"></path><path d="M944.715478 354.933805a29.380632 29.380632 0 0 1-55.606296 0H887.334513V138.029813a78.874179 78.874179 0 0 0-78.874179-78.874179H138.029813a78.874179 78.874179 0 0 0-78.874179 78.874179v216.903992h-1.774669a29.380632 29.380632 0 0 1-55.606296 0H0V118.311268a118.311268 118.311268 0 0 1 118.311268-118.311268h709.867611a118.311268 118.311268 0 0 1 118.311268 118.311268v236.622537zM601.021243 769.023245H808.460334a78.874179 78.874179 0 0 0 78.874179-78.874179V473.245074h1.774669a29.380632 29.380632 0 0 1 55.606296 0H946.490147v236.622536a118.311268 118.311268 0 0 1-118.311268 118.311269H616.993265l-236.622537 187.326175a39.437089 39.437089 0 0 1-63.888085-30.958115V828.178879H118.311268a118.311268 118.311268 0 0 1-118.311268-118.311269V473.245074h1.774669a29.380632 29.380632 0 0 1 55.606296 0H59.155634v216.903992a78.874179 78.874179 0 0 0 78.874179 78.874179h236.622537v178.452829z" fill="" p-id="4265"></path></svg>